<?xml version="1.0" encoding="utf-8"?>
<svg viewBox="0 0 48 48" fill="none" xmlns="http://www.w3.org/2000/svg">
  <ellipse style="stroke: rgb(0, 0, 0); fill: rgb(254, 254, 254);" cx="24.299" cy="24.14" rx="23.701" ry="23.566"/>
  <path fill-rule="evenodd" clip-rule="evenodd" d="M 0.27 24.272 C 0.27 11.017 11.015 0.272 24.27 0.272 C 37.525 0.272 48.27 11.017 48.27 24.272 C 48.27 37.527 37.525 48.272 24.27 48.272 C 11.015 48.272 0.27 37.527 0.27 24.272 Z M 26.772 38.384 L 26.772 25.326 L 30.376 25.326 L 30.854 20.827 L 26.772 20.827 L 26.778 18.575 C 26.778 17.401 26.889 16.772 28.575 16.772 L 30.828 16.772 L 30.828 12.272 L 27.223 12.272 C 22.893 12.272 21.369 14.455 21.369 18.126 L 21.369 20.827 L 18.67 20.827 L 18.67 25.327 L 21.369 25.327 L 21.369 38.384 L 26.772 38.384 Z" fill="black"/>
</svg>