<svg width="72" height="72" viewBox="0 0 72 72" fill="none" xmlns="http://www.w3.org/2000/svg">
<path d="M34.484 72V48.156H25.112V37.256H34.484V29.236C34.484 19.94 40.168 14.872 48.464 14.872C51.26 14.864 54.052 15.008 56.832 15.292V25.012H51.12C46.6 25.012 45.72 27.148 45.72 30.3V37.24H56.52L55.116 48.14H45.656V72H34.484Z" fill="#e3e3dc" opacity="70%"/>
<path d="M64 0H8C3.588 0 0 3.588 0 8V64C0 68.412 3.588 72 8 72H64C68.412 72 72 68.412 72 64V8C72 3.588 68.412 0 64 0ZM8 64V8H64L64.004 64H8Z" fill="#e3e3dc" opacity="70%"/>
</svg>
