<svg width="72" height="72" viewBox="0 0 72 72" fill="none" xmlns="http://www.w3.org/2000/svg">
<path d="M52 0H20C8.972 0 0 8.972 0 20V52C0 63.028 8.972 72 20 72H52C63.028 72 72 63.028 72 52V20C72 8.972 63.028 0 52 0ZM64 52C64 58.616 58.616 64 52 64H20C13.384 64 8 58.616 8 52V20C8 13.384 13.384 8 20 8H52C58.616 8 64 13.384 64 20V52Z" fill="#e3e3dc"/>
<path d="M36 16C24.972 16 16 24.972 16 36C16 47.028 24.972 56 36 56C47.028 56 56 47.028 56 36C56 24.972 47.028 16 36 16ZM36 48C29.384 48 24 42.616 24 36C24 29.384 29.384 24 36 24C42.616 24 48 29.384 48 36C48 42.616 42.616 48 36 48Z" fill="#e3e3dc"/>
<path d="M56 20C58.2091 20 60 18.2091 60 16C60 13.7909 58.2091 12 56 12C53.7909 12 52 13.7909 52 16C52 18.2091 53.7909 20 56 20Z" fill="#e3e3dc"/>
</svg>
