<svg width="96" height="100" viewBox="0 0 96 100" fill="none" xmlns="http://www.w3.org/2000/svg">
<rect width="96" height="100" rx="3" fill="#1A1C18"/>
<path d="M46.591 66.384C47.999 66.384 49.151 66.2773 50.047 66.064C50.9857 65.808 51.7323 65.488 52.287 65.104C52.8417 64.6773 53.2257 64.1867 53.439 63.632C53.6523 63.0773 53.759 62.4587 53.759 61.776C53.759 60.3253 53.0763 59.1307 51.711 58.192C50.3457 57.2107 47.999 56.1653 44.671 55.056C43.2203 54.544 41.7697 53.968 40.319 53.328C38.8683 52.6453 37.567 51.8133 36.415 50.832C35.263 49.808 34.3243 48.592 33.599 47.184C32.8737 45.7333 32.511 43.984 32.511 41.936C32.511 39.888 32.895 38.0533 33.663 36.432C34.431 34.768 35.519 33.36 36.927 32.208C38.335 31.056 40.0417 30.1813 42.047 29.584C44.0523 28.944 46.3137 28.624 48.831 28.624C51.8177 28.624 54.399 28.944 56.575 29.584C58.751 30.224 60.543 30.928 61.951 31.696L59.071 39.568C57.8337 38.928 56.447 38.3733 54.911 37.904C53.4177 37.392 51.6043 37.136 49.471 37.136C47.0817 37.136 45.3537 37.4773 44.287 38.16C43.263 38.8 42.751 39.8027 42.751 41.168C42.751 41.9787 42.943 42.6613 43.327 43.216C43.711 43.7707 44.2443 44.2827 44.927 44.752C45.6523 45.1787 46.463 45.584 47.359 45.968C48.2977 46.3093 49.3217 46.672 50.431 47.056C52.735 47.9093 54.7403 48.7627 56.447 49.616C58.1537 50.4267 59.5617 51.3867 60.671 52.496C61.823 53.6053 62.6763 54.9067 63.231 56.4C63.7857 57.8933 64.063 59.7067 64.063 61.84C64.063 65.9787 62.6123 69.2 59.711 71.504C56.8097 73.7653 52.4363 74.896 46.591 74.896C44.6283 74.896 42.8577 74.768 41.279 74.512C39.7003 74.2987 38.2923 74.0213 37.055 73.68C35.8603 73.3387 34.815 72.976 33.919 72.592C33.0657 72.208 32.3403 71.8453 31.743 71.504L34.559 63.568C35.8817 64.2933 37.503 64.9547 39.423 65.552C41.3857 66.1067 43.775 66.384 46.591 66.384Z" fill="#98D781"/>
</svg>
